<svg xmlns="http://www.w3.org/2000/svg" width="512" height="512" viewBox="0 0 512 512" fill="none"><g clip-path="url(#clip0_2912_6)"><path d="M255.75 -0.3125C256.755 -0.349883 257.761 -0.387266 258.797 -0.425781C265.887 0.516718 270.493 5.12336 275.375 9.9375C320.324 52.7599 380.188 71.1168 441.184 73.2344C442.182 73.2702 443.18 73.3061 444.208 73.343C446.096 73.4042 447.984 73.4518 449.872 73.4832C455.85 73.6584 460.188 74.5182 464.828 78.6133C465.297 79.174 465.767 79.7348 466.25 80.3125C466.73 80.8655 467.209 81.4185 467.703 81.9883C471.607 88.0433 471.339 94.4957 471.414 101.445C471.443 103.152 471.443 103.152 471.473 104.892C471.534 108.637 471.58 112.381 471.625 116.125C471.662 118.743 471.699 121.36 471.736 123.978C471.843 131.985 471.925 139.992 472 148C472.018 149.813 472.018 149.813 472.036 151.663C472.734 223.365 471.419 299.312 439 365C438.563 365.891 438.126 366.783 437.676 367.701C425.65 392.027 410.809 413.472 392 433C391.417 433.61 390.834 434.22 390.233 434.849C382.248 443.173 374.05 450.765 364.793 457.651C362.953 459.036 361.145 460.456 359.34 461.887C333.704 481.986 303.379 496.637 273 508C271.975 508.394 270.949 508.789 269.893 509.195C259.768 512.879 251.984 512.976 241.938 509.188C241.09 508.878 240.242 508.568 239.368 508.249C205.36 495.542 173.489 478.541 145 456C144.173 455.351 143.346 454.701 142.495 454.032C135.411 448.366 128.883 442.243 122.5 435.812C121.997 435.308 121.495 434.804 120.977 434.285C113.352 426.62 106.286 418.808 100 410C99.1514 408.856 98.3011 407.712 97.4492 406.57C91.3966 398.376 86.0488 389.843 81 381C80.3439 379.866 79.6878 378.731 79.0117 377.562C55.8778 336.554 46.24 288.524 42.25 242.062C42.1909 241.38 42.1317 240.698 42.0707 239.996C40.3123 219.262 39.8182 198.487 39.875 177.688C39.8769 176.632 39.8788 175.577 39.8807 174.489C39.8975 166.326 39.9432 158.163 40 150C40.0086 148.704 40.0172 147.407 40.0261 146.071C40.0816 137.985 40.1609 129.9 40.2645 121.815C40.2963 119.204 40.3235 116.593 40.3459 113.983C40.3792 110.319 40.4313 106.656 40.4883 102.992C40.4947 101.91 40.5011 100.828 40.5077 99.7127C40.6482 92.4862 41.2233 85.4037 45.9375 79.625C46.6182 79.0888 47.2988 78.5525 48 78C48.6807 77.4431 49.3613 76.8863 50.0625 76.3125C53.9436 73.6834 57.8868 73.7711 62.4024 73.6055C63.9342 73.5395 65.4661 73.4727 66.9978 73.405C68.2062 73.3527 68.2062 73.3527 69.439 73.2994C126.106 70.7613 182.151 56.8305 226 19C227.151 18.0204 228.302 17.0412 229.453 16.0625C231.843 14.0253 234.228 11.9816 236.605 9.92969C237.159 9.4537 237.712 8.97771 238.283 8.4873C239.488 7.44366 240.685 6.39144 241.877 5.33301C242.799 4.52235 242.799 4.52235 243.738 3.69531C244.568 2.95692 244.568 2.95692 245.415 2.20361C248.614 -0.225813 251.878 -0.219131 255.75 -0.3125ZM326.339 179.449C325.689 180.117 325.038 180.785 324.367 181.473C323.643 182.208 322.918 182.943 322.172 183.701C321.035 184.87 321.035 184.87 319.875 186.062C315.015 191.038 310.122 195.848 304.844 200.381C302.097 202.793 299.551 205.383 297 208C293.778 211.266 290.565 214.469 287.063 217.438C283.34 220.6 279.931 224.03 276.5 227.5C272.491 231.555 268.441 235.44 264.09 239.129C260.727 242.14 257.597 245.383 254.426 248.594C251.081 251.964 247.643 255.138 244.008 258.195C240.556 261.298 237.444 264.748 234.297 268.156C232 270 232 270 229.957 270.051C227.351 268.652 225.859 266.939 223.938 264.688C223.155 263.786 222.373 262.885 221.566 261.957C220.72 260.981 219.873 260.005 219 259C217.139 256.946 215.257 254.911 213.375 252.875C210.377 249.617 207.401 246.345 204.5 243C201.511 239.556 198.453 236.178 195.375 232.812C194.919 232.313 194.464 231.813 193.994 231.299C191.073 228.115 188.074 225.035 185 222C184.082 222.857 183.164 223.714 182.219 224.598C170.23 235.774 170.23 235.774 164.648 240.535C162.685 242.28 160.843 244.129 159 246C159.545 246.606 160.091 247.212 160.652 247.836C164.602 252.224 168.551 256.612 172.5 261C173.245 261.828 173.99 262.655 174.758 263.508C176.233 265.147 177.707 266.788 179.18 268.43C183.301 273.02 187.449 277.584 191.625 282.125C194.622 285.384 197.599 288.655 200.5 292C203.484 295.429 206.51 298.819 209.563 302.188C210.01 302.687 210.457 303.187 210.918 303.701C217.068 310.742 217.068 310.742 225.32 314.273C232.352 314.528 236.611 313.571 242 309C243.803 307.321 245.527 305.597 247.227 303.812C249.031 301.969 250.914 300.299 252.875 298.625C255.885 296.034 258.711 293.327 261.5 290.5C264.861 287.093 268.337 283.925 271.969 280.812C274.236 278.789 276.366 276.663 278.5 274.5C281.861 271.093 285.337 267.925 288.969 264.812C291.236 262.789 293.366 260.663 295.5 258.5C298.861 255.093 302.337 251.925 305.969 248.812C308.236 246.789 310.366 244.663 312.5 242.5C315.861 239.093 319.337 235.925 322.969 232.812C325.236 230.789 327.366 228.663 329.5 226.5C332.249 223.714 335.029 221.047 338 218.5C342.577 214.574 346.777 210.298 351 206C351.999 204.999 352.998 203.998 354 203C353.215 202.227 352.43 201.453 351.621 200.656C346.387 195.476 341.253 190.29 336.461 184.691C334.411 182.318 332.316 180.117 330 178C327.884 177.781 327.884 177.781 326.339 179.449Z" fill="#FF0035"></path></g><defs><clipPath id="clip0_2912_6"><rect width="512" height="512" fill="white"></rect></clipPath></defs></svg>