<svg xmlns="http://www.w3.org/2000/svg" width="512" height="512" viewBox="0 0 512 512" fill="none"><path d="M293 25.4376C313.636 41.1883 328.432 46.0356 354.207 46.9537C367.731 47.4551 380.131 49.2063 391 58.0001C391.614 58.4783 392.227 58.9565 392.859 59.4493C403.906 69.152 406.715 84.4416 409.562 98.1251C413.376 116.336 418.357 129.829 432.898 142.152C436.011 144.889 438.872 147.86 441.773 150.816C443.814 152.817 445.917 154.626 448.125 156.438C457.296 164.421 462.069 174.439 463.379 186.484C463.885 201.187 457.745 213.12 450.938 225.688C440.778 244.499 438.766 258.227 441.5 279.375C443.977 298.585 445.284 314.821 433 331C425.352 340.006 413.101 344.318 402.461 348.742C401.314 349.22 400.166 349.697 398.984 350.189C396.707 351.127 394.425 352.054 392.137 352.968C376.275 359.455 368.532 369.728 359.5 383.938C341.604 412.004 341.604 412.004 324.375 417.52C310.587 420.305 297.708 416.826 284.688 412.563C282.222 411.783 279.755 411.011 277.287 410.24C275.771 409.763 274.258 409.28 272.746 408.79C260.459 404.826 250.096 405.427 237.812 409.188C236.723 409.503 235.634 409.819 234.511 410.145C229.724 411.541 224.963 412.994 220.234 414.578C207.684 418.723 193.982 420.801 181.453 415.324C169.622 408.938 162.871 400.664 155.979 389.428C144.009 369.918 134.554 359.098 113.215 350.137C112.302 349.752 112.302 349.752 111.372 349.36C108.296 348.064 105.217 346.784 102.126 345.527C86.2891 338.933 76.6615 330.927 70 315C66.9214 303.755 69.0188 290.711 70.5 279.375C71.8658 268.814 71.8658 268.814 72.4375 258.188C72.4665 256.507 72.4665 256.507 72.4961 254.793C70.9613 243.059 65.066 232.936 59.4907 222.712C51.3336 207.687 45.9447 193.497 50.5 176.313C55.808 161.243 68.7387 151.171 80.457 140.984C93.543 129.535 98.114 117.496 101.93 100.898C102.09 100.203 102.25 99.5075 102.415 98.791C103.07 95.9344 103.721 93.0774 104.349 90.2149C107.357 76.588 111.669 64.8921 123 56.0001C131.832 50.5773 140.444 47.9185 150.762 47.4376C151.474 47.4007 152.187 47.3639 152.921 47.326C155.176 47.2099 157.432 47.1038 159.687 47.0001C184.798 45.8312 200.187 40.4438 219.887 24.67C245.712 4.25824 267.277 5.68341 293 25.4376ZM158 112C157.104 112.831 156.208 113.663 155.285 114.52C139.857 129.299 129.143 147.974 122 168C121.621 169.055 121.242 170.109 120.852 171.195C113.024 194.677 111.855 222.011 118 246C118.257 247.032 118.257 247.032 118.52 248.084C123.916 269.323 133.613 288.404 148 305C149.044 306.226 149.044 306.226 150.109 307.477C173.523 334.295 206.57 351.299 242 355C257.475 356.006 272.857 355.427 288 352C288.686 351.85 289.372 351.699 290.079 351.544C314.533 345.946 335.5 332.469 354 316C354.705 315.38 355.41 314.76 356.137 314.121C379.674 292.064 395.571 257.946 397.161 225.737C397.687 183.758 387.715 146.964 358 116C357.181 115.118 356.363 114.237 355.52 113.328C330.67 87.3403 295.524 73.3917 259.858 72.0237C221.383 71.2219 185.807 85.673 158 112Z" fill="#FF0035"></path><path d="M338 117C338.893 117.741 339.787 118.482 340.707 119.246C346.906 124.588 352.045 130.502 357 137C357.594 137.767 358.189 138.534 358.801 139.324C379.175 166.911 385.871 200.966 381.344 234.711C375.982 266.937 357.83 296.901 331.375 316.188C303.492 335.672 269.759 344.252 235.922 339.18C232.574 338.579 229.302 337.826 226 337C225.355 336.839 224.71 336.678 224.045 336.512C202.05 330.828 183.344 319.627 167 304C166.327 303.39 165.654 302.781 164.961 302.152C143.409 281.932 130.836 250.969 129.621 221.77C128.749 185.088 139.516 152.445 164.617 125.336C210.486 77.8113 287.92 74.8101 338 117ZM297 167C294.377 169.502 291.806 172.054 289.246 174.621C288.542 175.325 287.837 176.028 287.111 176.753C285.633 178.23 284.157 179.708 282.682 181.188C280.443 183.432 278.199 185.67 275.955 187.908C274.51 189.354 273.065 190.8 271.621 192.246C270.96 192.905 270.3 193.563 269.619 194.242C265.77 198.11 262.111 202.092 258.543 206.221C255.437 209.802 252.128 213.178 248.813 216.562C248.114 217.298 247.416 218.033 246.697 218.791C245.681 219.825 245.681 219.825 244.645 220.879C243.737 221.816 243.737 221.816 242.812 222.772C241 224 241 224 239.07 223.742C235.53 222.473 233.246 219.544 230.695 216.883C230.094 216.27 229.492 215.657 228.872 215.025C226.302 212.406 223.75 209.77 221.196 207.134C219.327 205.211 217.449 203.297 215.57 201.383C215.001 200.789 214.432 200.195 213.846 199.583C209.856 195.521 206.057 192.483 200.254 191.566C193.908 191.557 190.108 192.143 185 196C180.913 200.308 179.205 203.917 178.625 209.813C178.976 219.578 186.24 225.829 192.734 232.266C193.697 233.231 194.658 234.196 195.619 235.162C197.627 237.175 199.641 239.182 201.661 241.183C204.235 243.733 206.79 246.301 209.34 248.875C211.319 250.87 213.309 252.854 215.301 254.836C216.702 256.233 218.095 257.638 219.488 259.044C224.888 264.365 229.865 268.997 237.539 270.496C238.227 270.477 238.916 270.457 239.625 270.438C240.319 270.436 241.012 270.435 241.727 270.434C248.689 269.106 253.001 264.423 257.778 259.594C258.911 258.467 258.911 258.467 260.066 257.317C262.554 254.837 265.031 252.347 267.508 249.855C269.238 248.125 270.969 246.395 272.7 244.665C276.324 241.041 279.943 237.411 283.558 233.778C288.188 229.126 292.828 224.485 297.473 219.847C301.047 216.276 304.616 212.7 308.184 209.123C309.893 207.41 311.603 205.698 313.315 203.988C315.709 201.595 318.096 199.195 320.481 196.794C321.187 196.091 321.892 195.388 322.619 194.663C328.369 188.851 332.511 184.082 333.312 175.75C332.801 169.614 330.493 165.635 326.375 161.125C314.392 153.58 306.327 158.409 297 167Z" fill="#FF0035"></path><path d="M378 381C378.66 381 379.32 381 380 381C380.857 382.836 381.714 384.672 382.57 386.508C382.843 387.092 383.116 387.676 383.397 388.278C384.941 391.588 386.486 394.899 388.03 398.209C391.249 405.107 394.469 412.004 397.695 418.898C400.598 425.101 403.491 431.309 406.378 437.519C407.945 440.882 409.523 444.24 411.102 447.598C412.027 449.586 412.951 451.574 413.875 453.562C414.298 454.455 414.721 455.347 415.157 456.266C415.536 457.087 415.915 457.908 416.305 458.754C416.635 459.458 416.964 460.163 417.304 460.889C418.124 463.375 418.191 465.398 418 468C417 469 417 469 413.52 469.158C408.804 469.096 404.312 468.341 399.688 467.469C398.833 467.313 397.979 467.158 397.099 466.998C394.398 466.505 391.699 466.003 389 465.5C387.158 465.162 385.315 464.825 383.473 464.488C378.98 463.666 374.49 462.835 370 462C364.157 471.37 358.579 480.855 353.12 490.455C352.148 492.163 351.172 493.869 350.195 495.574C349.628 496.57 349.061 497.566 348.477 498.593C347 501 347 501 345 503C342.625 503.094 342.625 503.094 340 502C338.397 499.481 337.196 497.209 335.996 494.504C335.636 493.731 335.275 492.959 334.904 492.163C333.731 489.637 332.584 487.101 331.438 484.562C330.638 482.827 329.838 481.093 329.035 479.36C327.431 475.885 325.836 472.406 324.25 468.923C322.26 464.556 320.233 460.208 318.188 455.867C317.104 453.557 316.02 451.248 314.938 448.938C314.444 447.888 313.95 446.839 313.441 445.758C312.995 444.795 312.549 443.832 312.09 442.84C311.707 442.019 311.324 441.197 310.929 440.351C309.965 437.912 309.434 435.583 309 433C310.149 432.914 311.297 432.827 312.48 432.738C326.968 431.494 338.391 428.136 350 419C350.792 418.407 351.584 417.814 352.4 417.203C361.107 409.827 366.837 398.196 372.883 388.639C373.517 387.651 374.151 386.663 374.805 385.645C375.372 384.751 375.939 383.857 376.523 382.937C377.01 382.298 377.498 381.659 378 381Z" fill="#FF0035"></path><path d="M133 382C137.255 385.911 140.157 390.102 143.188 395C154.646 412.962 165.634 426.276 187.418 431.59C190.711 432.113 193.986 432.345 197.312 432.562C198.567 432.646 199.821 432.73 201.113 432.816C202.542 432.907 202.542 432.907 204 433C203.359 437.23 201.912 440.649 200.078 444.504C199.782 445.132 199.485 445.76 199.18 446.407C198.208 448.461 197.229 450.512 196.25 452.562C195.23 454.713 194.212 456.865 193.194 459.017C192.499 460.486 191.803 461.955 191.107 463.424C188.784 468.325 186.49 473.239 184.219 478.164C183.923 478.805 183.627 479.446 183.322 480.107C181.92 483.146 180.522 486.185 179.126 489.227C178.625 490.311 178.125 491.395 177.609 492.512C177.176 493.455 176.742 494.398 176.296 495.37C174.995 498.009 173.549 500.5 172 503C169.718 502.833 169.718 502.833 167 502C165.182 499.706 165.182 499.706 163.512 496.672C162.581 495.015 162.581 495.015 161.631 493.324C160.983 492.133 160.335 490.941 159.688 489.75C159.021 488.554 158.353 487.359 157.683 486.165C156.374 483.83 155.07 481.492 153.771 479.151C150.684 473.658 147.354 468.333 144 463C133.844 463.615 124.049 465.349 114.07 467.271C107.959 468.413 102.222 469.417 96 469C95.67 468.67 95.34 468.34 95 468C95.4 462.654 96.9439 458.354 99.2891 453.602C99.7922 452.551 99.7922 452.551 100.306 451.48C101.028 449.974 101.755 448.471 102.485 446.969C104.433 442.963 106.352 438.941 108.273 434.922C108.667 434.1 109.061 433.279 109.467 432.432C113.842 423.285 118.022 414.051 122.181 404.804C125.636 397.123 129.146 389.491 133 382Z" fill="#FF0035"></path></svg>