<svg xmlns="http://www.w3.org/2000/svg" width="514" height="514" viewBox="0 0 514 514" fill="none"><path d="M38.7913 85.4297C39.5847 85.4311 40.3781 85.4325 41.1955 85.434C43.7223 85.4396 46.2489 85.4521 48.7757 85.4648C50.4918 85.4699 52.2079 85.4744 53.9241 85.4785C58.1246 85.4895 62.3251 85.5068 66.5257 85.5273C66.7781 86.394 67.0306 87.2606 67.2908 88.1536C72.0422 104.092 79.4677 116.081 94.1507 124.59C95.1742 125.138 96.1977 125.686 97.2522 126.25C98.0024 126.672 98.7527 127.093 99.5257 127.527C99.5257 127.857 99.5257 128.187 99.5257 128.527C81.0457 128.527 62.5657 128.527 43.5257 128.527C43.5257 205.747 43.5257 282.967 43.5257 362.527C184.106 362.527 324.686 362.527 469.526 362.527C469.526 285.307 469.526 208.087 469.526 128.527C451.046 128.527 432.566 128.527 413.526 128.527C416.41 126.364 419.287 124.343 422.276 122.34C435.891 112.743 441.942 101.325 446.526 85.5273C451.451 85.4275 456.376 85.3554 461.302 85.3076C462.973 85.2877 464.644 85.2605 466.315 85.2256C479.863 84.9498 491.071 85.9463 501.526 95.5273C507.397 101.317 512.209 108.527 512.654 116.967C512.657 118.346 512.657 118.346 512.66 119.752C512.664 120.816 512.669 121.879 512.673 122.975C512.673 124.727 512.673 124.727 512.673 126.513C512.676 127.754 512.68 128.996 512.684 130.274C512.693 133.722 512.698 137.169 512.7 140.616C512.704 144.333 512.714 148.051 512.723 151.768C512.742 160.747 512.752 169.725 512.761 178.704C512.766 182.934 512.771 187.164 512.776 191.394C512.793 205.458 512.808 219.523 512.815 233.587C512.817 237.236 512.819 240.886 512.821 244.535C512.821 245.442 512.822 246.349 512.822 247.283C512.831 261.971 512.856 276.658 512.888 291.346C512.921 306.431 512.939 321.515 512.943 336.6C512.945 345.067 512.954 353.535 512.979 362.002C513.001 369.214 513.009 376.426 512.999 383.639C512.995 387.316 512.996 390.993 513.016 394.67C513.037 398.665 513.027 402.658 513.013 406.652C513.03 408.38 513.03 408.38 513.047 410.143C512.956 421.585 509.939 430.055 501.959 438.297C494.174 445.432 486.918 448.784 476.192 448.768C475.488 448.77 474.784 448.771 474.058 448.773C471.716 448.776 469.375 448.765 467.034 448.754C465.348 448.754 463.662 448.754 461.977 448.755C457.413 448.756 452.85 448.744 448.286 448.73C443.512 448.718 438.738 448.716 433.964 448.714C424.93 448.708 415.895 448.691 406.861 448.671C396.573 448.649 386.286 448.638 375.998 448.628C354.84 448.607 333.683 448.572 312.526 448.527C313.44 451.044 314.362 453.558 315.287 456.07C315.669 457.123 315.669 457.123 316.058 458.197C320.451 470.068 327.2 480.035 335.526 489.527C342.5 497.611 342.5 497.611 342.58 500.516C342.521 501.283 342.462 502.05 342.401 502.84C342.357 503.599 342.313 504.358 342.268 505.141C341.178 508.647 339.326 510.194 336.526 512.527C333.426 513.157 333.426 513.157 329.884 513.162C329.23 513.17 328.576 513.178 327.902 513.186C325.717 513.206 323.534 513.19 321.35 513.174C319.781 513.181 318.212 513.19 316.643 513.201C312.387 513.224 308.131 513.215 303.875 513.199C299.419 513.186 294.964 513.198 290.509 513.206C283.027 513.215 275.545 513.203 268.064 513.179C259.415 513.152 250.767 513.161 242.119 513.188C234.692 513.211 227.265 513.214 219.838 513.201C215.403 513.193 210.968 513.192 206.533 513.209C202.363 513.223 198.194 513.213 194.024 513.184C192.494 513.178 190.964 513.18 189.434 513.191C187.345 513.204 185.257 513.187 183.167 513.162C181.414 513.159 181.414 513.159 179.626 513.157C175.595 512.338 174.1 510.659 171.526 507.527C170.387 504.509 170.257 501.734 170.526 498.527C172.097 495.169 173.968 493.125 176.483 490.43C188.023 478 195.219 464.596 200.526 448.527C199.655 448.531 198.783 448.535 197.886 448.539C176.66 448.627 155.434 448.693 134.209 448.735C123.944 448.755 113.679 448.783 103.415 448.829C94.4648 448.869 85.5151 448.895 76.5653 448.904C71.8291 448.909 67.0932 448.921 62.3572 448.95C57.8929 448.978 53.4289 448.986 48.9645 448.98C47.3323 448.981 45.7002 448.989 44.0681 449.004C30.778 449.124 20.6321 447.523 10.7561 437.961C1.88571 428.283 0.223998 419.987 0.258224 407.174C0.253693 405.929 0.249164 404.685 0.244495 403.403C0.234044 399.96 0.232521 396.518 0.234882 393.076C0.235291 389.359 0.224245 385.641 0.214767 381.924C0.198173 374.646 0.192659 367.368 0.191544 360.089C0.190592 354.172 0.186478 348.255 0.180141 342.337C0.162534 325.551 0.153304 308.765 0.154804 291.979C0.154884 291.075 0.154962 290.17 0.155045 289.239C0.155126 288.333 0.155208 287.427 0.155293 286.494C0.156105 271.819 0.136967 257.144 0.108768 242.469C0.0800271 227.392 0.0662278 212.316 0.067955 197.239C0.0686185 188.777 0.0631463 180.317 0.0415993 171.855C0.023371 164.652 0.019055 157.448 0.0326195 150.244C0.0391408 146.571 0.0392957 142.898 0.0219116 139.225C0.00323286 135.237 0.015757 131.25 0.0311737 127.262C0.0208866 126.109 0.0105989 124.956 0 123.768C0.100094 112.036 4.04859 103.254 12.1507 94.8398C19.8646 87.6973 28.5092 85.3605 38.7913 85.4297Z" fill="#FF0035"></path><path d="M281.213 8.40236C283.027 9.22577 284.843 10.0468 286.659 10.8655C290.424 12.565 294.185 14.2747 297.942 15.9917C305.719 19.5359 313.552 22.9494 321.386 26.3664C325.606 28.2097 329.822 30.0641 334.037 31.918C339.452 34.298 344.866 36.677 350.282 39.0527C355.154 41.19 360.024 43.331 364.893 45.4744C366.741 46.2874 368.59 47.0992 370.44 47.9097C376.152 50.4132 381.847 52.95 387.526 55.5274C388.234 55.8451 388.942 56.1629 389.672 56.4903C391.629 57.3757 393.573 58.2845 395.514 59.2031C396.588 59.7037 397.662 60.2043 398.769 60.72C402.943 63.4565 404.965 66.8446 406.526 71.5274C407.092 77.3057 406.108 81.9483 402.526 86.5274C396.589 91.498 389.873 94.182 382.776 97.1524C380.067 98.3031 377.361 99.4605 374.655 100.617C373.932 100.925 373.21 101.233 372.465 101.55C363.175 105.516 353.947 109.622 344.713 113.715C341.042 115.341 337.37 116.965 333.698 118.59C332.779 118.996 331.861 119.402 330.915 119.821C319.122 125.036 307.312 130.214 295.501 135.389C294.312 135.911 294.312 135.911 293.098 136.443C291.543 137.125 289.987 137.806 288.432 138.487C284.456 140.23 280.489 141.99 276.533 143.777C275.311 144.327 275.311 144.327 274.064 144.888C272.517 145.585 270.972 146.286 269.428 146.991C262.952 149.906 257.689 151.876 250.672 149.603C242.94 146.553 235.339 143.287 227.776 139.84C225.214 138.681 222.652 137.526 220.088 136.371C219.41 136.065 218.732 135.76 218.033 135.445C209.306 131.519 200.54 127.681 191.776 123.84C190.042 123.079 188.308 122.319 186.574 121.559C178.424 117.985 170.271 114.416 162.118 110.848C158.431 109.234 154.744 107.619 151.058 106.004C148.486 104.877 145.912 103.753 143.339 102.628C138.728 100.61 134.123 98.5767 129.526 96.5274C128.804 96.206 128.081 95.8847 127.337 95.5537C125.274 94.6305 123.215 93.6964 121.159 92.7578C119.995 92.2296 118.831 91.7013 117.632 91.157C111.568 87.9752 108.649 85.1203 106.526 78.5274C105.773 72.6129 107.082 68.2853 110.526 63.5274C115.522 59.5841 121.467 57.0263 127.272 54.5156C128.103 54.1502 128.934 53.7848 129.79 53.4083C132.512 52.213 135.238 51.0264 137.963 49.8399C139.892 48.9947 141.82 48.149 143.748 47.3027C147.725 45.5587 151.702 43.8181 155.681 42.0806C161.113 39.7087 166.541 37.3289 171.967 34.9453C172.803 34.5781 173.639 34.2109 174.501 33.8325C176.176 33.0965 177.851 32.3606 179.527 31.6246C182.026 30.5274 184.525 29.4311 187.024 28.3352C196.182 24.3192 205.334 20.2905 214.479 16.2461C215.469 15.8083 216.459 15.3705 217.479 14.9194C222.281 12.7954 227.082 10.67 231.883 8.54298C233.613 7.77735 235.343 7.01172 237.073 6.24611C237.857 5.89802 238.642 5.54993 239.45 5.1913C241.472 4.2966 243.498 3.41045 245.526 2.52736C246.419 2.13339 247.312 1.73942 248.232 1.33351C259.983 -2.79715 270.778 3.54822 281.213 8.40236Z" fill="#FF0035"></path><path d="M149.526 138.527C159.049 142.03 168.283 146.016 177.521 150.2C181.669 152.078 185.824 153.938 189.979 155.801C190.838 156.186 191.698 156.572 192.583 156.969C201.417 160.93 210.255 164.881 219.116 168.783C220.786 169.521 222.455 170.261 224.122 171.006C241.656 178.831 256.747 183.92 275.532 176.763C281.11 174.487 286.595 171.999 292.088 169.527C293.871 168.734 295.654 167.942 297.437 167.15C301.189 165.484 304.938 163.813 308.685 162.137C317.567 158.166 326.464 154.227 335.362 150.291C338.172 149.046 340.98 147.797 343.788 146.547C345.517 145.78 347.246 145.013 348.975 144.246C350.144 143.724 350.144 143.724 351.337 143.191C355.348 141.417 359.331 139.833 363.526 138.527C364.45 166.743 364.45 166.743 355.381 178.578C349.745 184.499 343.516 188.544 336.338 192.402C335.379 192.921 334.419 193.44 333.43 193.975C295.67 213.981 254.713 220.268 213.408 208.133C194.132 202.125 165.709 192.505 154.631 174.438C151.4 168.195 149.389 163.148 149.428 156.105C149.431 155.081 149.435 154.056 149.438 153C149.446 151.937 149.455 150.873 149.463 149.777C149.468 148.698 149.472 147.619 149.477 146.508C149.489 143.848 149.505 141.188 149.526 138.527Z" fill="#FF0035"></path></svg>