<svg xmlns="http://www.w3.org/2000/svg" width="512" height="512" viewBox="0 0 512 512" fill="none"><path d="M143.938 15.6875C144.751 15.6707 145.564 15.654 146.402 15.6367C152.827 16.5352 156.681 20.3169 160.812 25C161.335 25.5781 161.857 26.1563 162.395 26.752C166.299 31.1109 169.994 35.6235 173.656 40.1875C176.332 43.3985 179.144 46.4503 182 49.5C186.438 54.2387 190.591 59.1212 194.656 64.1875C197.332 67.3985 200.144 70.4503 203 73.5C207.438 78.2387 211.591 83.1212 215.656 88.1875C218.332 91.3985 221.144 94.4503 224 97.5C228.438 102.239 232.591 107.121 236.656 112.188C239.332 115.398 242.144 118.45 245 121.5C249.451 126.253 253.631 131.142 257.695 136.234C259.396 138.276 261.108 140.214 262.93 142.141C263.429 142.67 263.929 143.199 264.443 143.744C265.858 145.229 267.286 146.703 268.715 148.176C272.181 152.459 273.426 156.46 273 161.938C272.332 167.275 270.12 170.603 266 174C262.768 175.961 260.346 176.245 256.589 176.227C255.508 176.227 254.427 176.227 253.314 176.227C252.153 176.216 250.993 176.206 249.797 176.195C248.007 176.191 248.007 176.191 246.182 176.187C242.371 176.176 238.561 176.15 234.75 176.125C232.167 176.115 229.583 176.106 227 176.098C220.667 176.076 214.333 176.042 208 176C207.93 202.009 207.877 228.019 207.845 254.028C207.829 266.106 207.808 278.185 207.774 290.263C207.744 300.798 207.724 311.333 207.718 321.868C207.714 327.439 207.705 333.01 207.683 338.582C207.662 343.84 207.656 349.099 207.661 354.358C207.66 356.274 207.654 358.189 207.642 360.105C207.436 395.872 218.06 420.965 243.062 446.312C247.574 450.798 252.343 454.865 257.316 458.836C260.124 461.1 262.856 463.428 265.562 465.812C266.368 466.52 267.174 467.228 268.004 467.957C271.684 471.724 272.309 474.653 272.375 479.875C272.274 485.083 271.699 488.106 268 492C263.629 495.404 260.82 496.505 255.293 496.496C253.997 496.499 252.701 496.502 251.365 496.505C249.973 496.485 248.58 496.462 247.188 496.438C246.477 496.43 245.766 496.423 245.034 496.416C198.666 495.931 152.743 484.348 119.323 450.75C113.747 444.959 109.214 438.845 105 432C104.532 431.26 104.065 430.519 103.583 429.756C99.9462 423.889 97.0141 417.962 94.4375 411.562C94.0518 410.606 93.6662 409.649 93.2688 408.664C83.3131 383.343 79.8221 356.208 79.8865 329.146C79.8868 327.469 79.8866 325.793 79.886 324.116C79.8857 319.596 79.8916 315.077 79.8986 310.557C79.9049 305.822 79.9054 301.086 79.9066 296.351C79.9097 287.398 79.9179 278.446 79.928 269.493C79.9392 259.294 79.9447 249.096 79.9497 238.898C79.9601 217.932 79.9777 196.966 80 176C79.3368 176.009 78.6736 176.018 77.9903 176.027C71.0797 176.115 64.1693 176.176 57.2583 176.22C54.6801 176.24 52.102 176.267 49.5239 176.302C45.8153 176.35 42.1073 176.373 38.3984 176.391C36.6731 176.422 36.6731 176.422 34.9129 176.453C28.6115 176.455 24.764 176.279 20 172C16.3717 168.181 15.69 165.117 15.5 160C15.7127 154.754 16.4295 152.006 20 148C20.6445 147.277 21.2891 146.554 21.9531 145.809C23.4871 144.095 25.032 142.391 26.5859 140.695C28.9203 138.089 31.1242 135.417 33.3125 132.688C37.2032 127.873 41.33 123.351 45.5579 118.837C48.6752 115.489 51.6356 112.07 54.5 108.5C58.3199 103.739 62.3894 99.2873 66.5586 94.8359C69.6757 91.4888 72.6358 88.0699 75.5 84.5C79.3199 79.7389 83.3894 75.2873 87.5586 70.8359C90.6757 67.4888 93.6358 64.0699 96.5 60.5C100.32 55.7389 104.389 51.2873 108.559 46.8359C111.676 43.4888 114.636 40.0699 117.5 36.5C120.969 32.2023 124.548 28.0339 128.25 23.9375C128.746 23.3768 129.241 22.816 129.752 22.2383C134.065 17.5247 137.584 15.7176 143.938 15.6875Z" fill="#FF0035"></path><path d="M256.707 15.5039C258.651 15.4993 258.651 15.4993 260.634 15.4946C262.027 15.5153 263.42 15.5379 264.812 15.5625C265.879 15.5732 265.879 15.5732 266.967 15.5842C295.655 15.8838 324.688 20.1164 351 32C351.628 32.2796 352.256 32.5591 352.903 32.8472C366.188 38.85 377.491 46.9189 388 57C388.833 57.7696 389.665 58.5391 390.523 59.332C406.492 74.5393 416.632 95.1063 423 116C423.549 117.758 423.549 117.758 424.109 119.551C430.079 140.192 432.164 161.455 432.114 182.854C432.113 184.531 432.113 186.207 432.114 187.884C432.114 192.404 432.108 196.923 432.101 201.443C432.095 206.178 432.095 210.914 432.093 215.649C432.09 224.602 432.082 233.554 432.072 242.507C432.061 252.706 432.055 262.904 432.05 273.102C432.04 294.068 432.022 315.034 432 336C432.663 335.991 433.326 335.982 434.01 335.973C440.92 335.885 447.831 335.824 454.742 335.78C457.32 335.76 459.898 335.733 462.476 335.698C466.185 335.65 469.893 335.627 473.602 335.609C474.752 335.589 475.902 335.568 477.087 335.547C483.389 335.545 487.236 335.721 492 340C495.628 343.819 496.31 346.883 496.5 352C496.287 357.246 495.571 359.994 492 364C491.355 364.723 490.711 365.446 490.047 366.191C488.513 367.905 486.968 369.609 485.414 371.305C483.08 373.911 480.876 376.583 478.688 379.312C474.797 384.127 470.67 388.649 466.442 393.163C463.325 396.511 460.364 399.93 457.5 403.5C453.68 408.261 449.611 412.713 445.441 417.164C442.324 420.511 439.364 423.93 436.5 427.5C432.68 432.261 428.611 436.713 424.441 441.164C421.324 444.511 418.364 447.93 415.5 451.5C411.68 456.261 407.611 460.713 403.441 465.164C400.324 468.511 397.364 471.93 394.5 475.5C391.025 479.814 387.418 483.97 383.688 488.062C383.183 488.623 382.679 489.184 382.16 489.762C378.654 493.567 376.354 495.718 371.195 496.336C370.182 496.349 369.169 496.362 368.125 496.375C367.117 496.403 366.109 496.432 365.07 496.461C358.702 495.505 354.832 491.049 350.688 486.438C350.212 485.911 349.737 485.384 349.248 484.842C345.478 480.627 341.923 476.253 338.379 471.848C335.203 468.046 331.827 464.451 328.442 460.836C324.54 456.647 320.927 452.278 317.344 447.812C314.668 444.602 311.856 441.55 309 438.5C304.562 433.761 300.409 428.879 296.344 423.812C293.668 420.602 290.856 417.55 288 414.5C283.562 409.761 279.409 404.879 275.344 399.812C272.668 396.601 269.856 393.55 267 390.5C262.53 385.726 258.329 380.814 254.238 375.707C251.003 371.794 247.545 368.107 244.066 364.41C239.745 359.37 239.56 355.444 239.688 348.914C240.245 343.714 242.616 341.243 246.374 337.868C251.188 334.76 256.88 335.51 262.398 335.609C263.589 335.615 264.779 335.621 266.005 335.627C269.795 335.649 273.585 335.699 277.375 335.75C279.949 335.77 282.523 335.788 285.098 335.805C291.399 335.849 297.699 335.916 304 336C304.07 309.991 304.123 283.981 304.155 257.972C304.171 245.894 304.192 233.815 304.226 221.737C304.256 211.202 304.276 200.667 304.282 190.132C304.286 184.561 304.295 178.99 304.317 173.418C304.338 168.16 304.344 162.901 304.339 157.642C304.34 155.726 304.346 153.811 304.358 151.895C304.564 116.128 293.94 91.0351 268.938 65.6875C264.426 61.2018 259.657 57.1345 254.684 53.1641C251.876 50.8998 249.144 48.5718 246.438 46.1875C245.632 45.4798 244.826 44.7721 243.996 44.043C240.316 40.2765 239.691 37.3472 239.625 32.125C239.726 26.9173 240.301 23.8942 244 20C248.371 16.5963 251.18 15.495 256.707 15.5039Z" fill="#FF0035"></path></svg>